<svg width="95" height="33" viewBox="0 0 95 33" fill="none" xmlns="http://www.w3.org/2000/svg">
<path d="M0.478157 28.8565C0.0921529 29.0067 -0.0989659 29.4415 0.0512807 29.8275C0.201527 30.2135 0.636244 30.4046 1.02225 30.2543L0.750202 29.5554L0.478157 28.8565ZM69.527 28.0554L69.7231 28.7793L69.7659 28.7677L69.807 28.7512L69.527 28.0554ZM94.4402 18.5994C94.6025 18.2183 94.4252 17.7778 94.0442 17.6154L87.8342 14.9699C87.4531 14.8075 87.0126 14.9848 86.8503 15.3659C86.6879 15.747 86.8652 16.1875 87.2463 16.3499L92.7663 18.7015L90.4147 24.2214C90.2523 24.6025 90.4296 25.043 90.8107 25.2054C91.1918 25.3677 91.6323 25.1904 91.7946 24.8093L94.4402 18.5994ZM28.2681 19.9651L27.6072 20.3196L28.2681 19.9651ZM26.712 4.46141L26.2507 3.8701L26.712 4.46141ZM38.5386 6.3642L39.2872 6.40965L38.5386 6.3642ZM0.750202 29.5554L1.02225 30.2543C16.4922 24.2329 29.1823 16.1039 36.6846 11.0036L36.2629 10.3833L35.8413 9.76309C28.3736 14.8399 15.7924 22.8956 0.478157 28.8565L0.750202 29.5554ZM30.0193 1.88094L29.5579 1.28963L26.2507 3.8701L26.712 4.46141L27.1734 5.05272L30.4807 2.47224L30.0193 1.88094ZM24.8037 13.5078L24.1428 13.8624L27.6072 20.3196L28.2681 19.9651L28.929 19.6105L25.4646 13.1533L24.8037 13.5078ZM34.9738 26.5642L34.6299 27.2306L38.3227 29.1363L38.6667 28.4698L39.0106 27.8033L35.3178 25.8977L34.9738 26.5642ZM59.7315 30.7092L59.9276 31.4331L69.7231 28.7793L69.527 28.0554L69.3308 27.3315L59.5354 29.9853L59.7315 30.7092ZM69.527 28.0554L69.807 28.7512L94.0302 19.0012L93.7502 18.3054L93.4702 17.6097L69.2469 27.3597L69.527 28.0554ZM38.6667 28.4698L38.3227 29.1363C44.9845 32.574 52.6919 33.3934 59.9276 31.4331L59.7315 30.7092L59.5354 29.9853C52.6614 31.8475 45.3394 31.0691 39.0106 27.8033L38.6667 28.4698ZM28.2681 19.9651L27.6072 20.3196C29.1956 23.2803 31.6442 25.6899 34.6299 27.2306L34.9738 26.5642L35.3178 25.8977C32.6015 24.496 30.374 22.3039 28.929 19.6105L28.2681 19.9651ZM26.712 4.46141L26.2507 3.8701C23.2089 6.24341 22.3189 10.4627 24.1428 13.8624L24.8037 13.5078L25.4646 13.1533C23.986 10.3972 24.7075 6.97671 27.1734 5.05272L26.712 4.46141ZM38.5386 6.3642L39.2872 6.40965C39.6019 1.22548 33.6527 -1.90529 29.5579 1.28963L30.0193 1.88094L30.4807 2.47224C33.5569 0.0720057 38.0264 2.42405 37.7899 6.31875L38.5386 6.3642ZM36.2629 10.3833L36.6846 11.0036C38.2215 9.95873 39.1749 8.25823 39.2872 6.40965L38.5386 6.3642L37.7899 6.31875C37.7055 7.71001 36.9886 8.9831 35.8413 9.76309L36.2629 10.3833Z" fill="#FFF7EC"/>
</svg>
