<svg width="47" height="35" viewBox="0 0 47 35" fill="none" xmlns="http://www.w3.org/2000/svg">
<path d="M24.1821 5.01209L16.7787 7.71931C14.9918 8.37274 13.3752 9.4208 12.0494 10.7855C9.75534 13.1468 8.47205 16.3093 8.47205 19.6014V19.7183C8.47205 23.5553 10.1749 27.1943 13.1207 29.6528L14.0237 30.4065C16.8022 32.7253 20.3064 33.9954 23.9253 33.9954H25.9189C29.3193 33.9954 32.6625 33.1211 35.6274 31.4565L38.2017 30.0112C42.864 27.3936 45.7502 22.4632 45.7502 17.1164V16.6263C45.7502 15.1986 45.4965 13.7822 45.0009 12.4432C44.1041 10.0201 42.4523 7.94936 40.2892 6.53639L36.6969 4.18987L34.6513 3.14704C27.2531 -0.624528 18.3606 0.0970543 11.6673 5.01209L8.63115 7.222C4.58675 10.1658 1.7785 14.5055 0.750153 19.401" stroke="#4B2E20" stroke-width="1.5" stroke-linecap="round"/>
</svg>
