<svg width="440" height="74" viewBox="0 0 440 74" fill="none" xmlns="http://www.w3.org/2000/svg">
<path d="M175.186 47.9146L174.853 48.8235C174.626 49.4428 173.812 49.5808 173.394 49.0708L170.24 45.2246L166.963 41.6269C166.416 41.0271 165.807 40.4878 165.145 40.0182L163.204 38.6412C161.505 37.4354 159.335 37.1045 157.354 37.7489L157.105 37.83C156.306 38.0896 155.579 38.5295 154.978 39.1157C153.923 40.1445 153.329 41.5553 153.329 43.0285V45.4938C153.329 47.2886 153.756 49.0576 154.574 50.6549L156.315 54.0512C157.73 56.813 159.609 59.3115 161.869 61.438L172.601 71.5349C172.73 71.656 172.803 71.8248 172.803 72.0016C172.803 72.5954 173.541 72.8697 173.929 72.4202L188.441 55.6058C188.946 55.0208 189.373 54.3726 189.71 53.6775L191.99 48.9816C193.156 46.5806 193.296 43.8091 192.378 41.3028L191.892 39.9747C191.476 38.8387 190.704 37.8681 189.689 37.2085C187.835 36.0023 185.444 36.0023 183.589 37.2085L182.634 37.83C182.23 38.0925 181.854 38.3939 181.509 38.73L180.477 39.7369C178.124 42.0328 176.316 44.8273 175.186 47.9146Z" fill="#4B2E20" stroke="#4B2E20" stroke-width="1.5"/>
<path d="M-4 49.3293L5.82463 32.6711C17.2806 13.2468 39.1071 2.3976 61.5082 4.99271C71.307 6.12789 80.6439 9.7854 88.6065 15.6079L104.983 27.5826C124.448 41.8159 147.395 50.5287 171.401 52.8009L183.882 53.9822C196.112 55.1396 208.436 54.8298 220.591 53.0591L304.373 40.855C312.408 39.6847 320.337 37.8807 328.088 35.4599L388.109 16.713L448 0.724625" stroke="#4B2E20" stroke-width="1.5"/>
</svg>
