<svg width="100" height="100" viewBox="0 0 100 100" fill="none" xmlns="http://www.w3.org/2000/svg">
<rect width="100" height="100" fill="#FFF7EC"/>
<path d="M20.088 67.152C19.096 67.088 18.216 66.784 17.448 66.24C16.712 65.696 15.928 65.136 15.096 64.56C14.552 64.016 14.12 63.44 13.8 62.832C13.48 62.192 13.224 61.36 13.032 60.336C12.904 59.728 12.904 58.96 13.032 58.032C13.16 57.104 13.368 56.176 13.656 55.248C13.944 54.288 14.216 53.52 14.472 52.944C14.856 52.048 15.336 51.088 15.912 50.064C16.52 49.008 17.112 48.016 17.688 47.088C18.296 46.128 18.776 45.36 19.128 44.784C19.352 44.56 19.448 44.448 19.416 44.448C19.416 44.416 19.416 44.4 19.416 44.4C19.416 44.24 19.576 43.84 19.896 43.2C20.248 42.528 20.552 41.936 20.808 41.424C21.288 40.912 21.56 40.496 21.624 40.176C21.688 39.856 21.64 39.6 21.48 39.408C21.416 39.28 21.528 39.056 21.816 38.736C22.104 38.416 22.536 38.048 23.112 37.632C23.688 37.216 24.344 36.8 25.08 36.384C25.848 35.776 26.584 35.456 27.288 35.424C28.024 35.36 28.456 35.504 28.584 35.856C28.584 35.952 28.76 35.984 29.112 35.952C29.496 35.888 29.928 35.808 30.408 35.712C30.92 35.584 31.368 35.488 31.752 35.424C31.912 35.232 32.28 35.088 32.856 34.992C33.464 34.864 34.168 34.752 34.968 34.656C35.384 34.688 35.784 34.704 36.168 34.704C36.584 34.672 36.92 34.64 37.176 34.608C37.464 34.576 37.608 34.56 37.608 34.56C37.832 34.496 38.088 34.528 38.376 34.656C38.696 34.784 38.984 35.136 39.24 35.712C39.464 36.288 39.384 36.72 39 37.008C38.648 37.296 37.816 37.52 36.504 37.68C35.544 37.808 34.712 37.92 34.008 38.016C33.304 38.08 32.568 38.176 31.8 38.304C31.032 38.4 30.088 38.576 28.968 38.832C28.168 38.992 27.512 39.184 27 39.408C26.488 39.6 26.04 39.904 25.656 40.32C25.272 40.704 24.84 41.264 24.36 42C24.136 42.16 23.848 42.576 23.496 43.248C23.144 43.92 22.792 44.592 22.44 45.264C21.544 46.512 20.76 47.6 20.088 48.528C19.448 49.424 19.192 49.952 19.32 50.112C19.32 50.112 19.496 50.16 19.848 50.256C20.2 50.352 20.44 50.4 20.568 50.4C20.888 50.24 21.272 50.128 21.72 50.064C22.2 50 22.584 49.936 22.872 49.872C24.856 49.36 26.408 48.96 27.528 48.672C28.68 48.384 29.544 48.176 30.12 48.048C30.728 47.888 31.192 47.792 31.512 47.76C31.96 47.408 32.392 47.344 32.808 47.568C33.256 47.792 33.608 48.144 33.864 48.624C34.024 48.976 34.024 49.28 33.864 49.536C33.736 49.792 33.336 50.048 32.664 50.304C32.024 50.56 31.064 50.864 29.784 51.216C28.504 51.568 26.824 52.032 24.744 52.608C22.984 53.12 21.48 53.424 20.232 53.52C18.984 53.616 18.392 53.344 18.456 52.704C18.232 52.576 17.976 52.736 17.688 53.184C17.432 53.6 17.176 54.176 16.92 54.912C16.664 55.648 16.44 56.432 16.248 57.264C16.088 58.096 15.976 58.88 15.912 59.616C15.88 60.32 15.928 60.848 16.056 61.2C16.312 61.936 16.648 62.528 17.064 62.976C17.48 63.392 18.232 63.76 19.32 64.08C19.96 64.112 20.584 64.16 21.192 64.224C21.8 64.288 22.488 64.16 23.256 63.84C25.144 63.52 26.632 63.184 27.72 62.832C28.808 62.48 29.432 62.24 29.592 62.112C29.848 61.984 30.008 61.92 30.072 61.92C30.168 61.888 30.296 61.872 30.456 61.872C30.36 62.032 30.392 62.048 30.552 61.92C30.744 61.76 31 61.52 31.32 61.2C31.672 60.88 32.136 60.576 32.712 60.288C33.288 60 33.8 59.776 34.248 59.616C34.728 59.456 34.984 59.456 35.016 59.616C35.208 59.936 35.176 60.384 34.92 60.96C34.664 61.504 34.2 62.112 33.528 62.784C32.856 63.424 31.992 64.048 30.936 64.656C29.24 65.552 27.4 66.176 25.416 66.528C23.432 66.912 21.656 67.12 20.088 67.152ZM65.9423 68.592C65.9743 68.976 65.7983 69.184 65.4143 69.216C65.0623 69.28 64.5823 69.216 63.9743 69.024C63.3983 68.864 62.7903 68.624 62.1503 68.304C61.5103 68.016 60.9503 67.728 60.4703 67.44C59.8623 67.28 59.0143 66.688 57.9263 65.664C56.8383 64.64 55.6703 63.392 54.4223 61.92C53.1423 62.624 52.1023 63.2 51.3023 63.648C50.5023 64.064 49.7663 64.416 49.0943 64.704C48.4543 64.96 47.6863 65.216 46.7903 65.472C44.6783 65.664 42.7423 65.456 40.9823 64.848C40.7263 64.752 40.3903 64.56 39.9743 64.272C39.5903 63.984 39.2063 63.68 38.8223 63.36C38.4383 63.04 38.1663 62.8 38.0063 62.64C37.8463 62.544 37.7663 62.336 37.7663 62.016C37.7663 61.664 37.7983 61.312 37.8623 60.96C37.9263 60.608 37.9743 60.384 38.0063 60.288C38.1023 60 38.3743 59.504 38.8223 58.8C39.3023 58.064 39.8943 57.216 40.5983 56.256C41.3343 55.296 42.1183 54.32 42.9503 53.328C43.8143 52.336 44.6623 51.424 45.4943 50.592C44.7263 49.472 44.1983 48.416 43.9103 47.424C43.6223 46.4 43.6223 45.296 43.9103 44.112C44.2303 42.928 44.8383 41.536 45.7343 39.936C46.0543 39.424 46.4543 38.896 46.9343 38.352C47.4143 37.776 47.8943 37.248 48.3743 36.768C48.8863 36.256 49.3183 35.872 49.6703 35.616C50.0543 35.328 50.2623 35.216 50.2943 35.28C50.4223 35.504 50.5503 35.584 50.6783 35.52C50.8063 35.456 50.9343 35.424 51.0623 35.424C51.1903 35.36 51.4303 35.344 51.7823 35.376C52.1343 35.376 52.5343 35.408 52.9823 35.472C53.4623 35.536 53.9103 35.648 54.3263 35.808C55.4783 35.936 56.2783 36.064 56.7263 36.192C57.2063 36.32 57.6383 36.608 58.0223 37.056C58.5023 37.408 58.8703 37.76 59.1263 38.112C59.3823 38.464 59.5583 38.816 59.6543 39.168C59.7823 39.488 59.8463 39.792 59.8463 40.08C59.8463 40.496 59.5103 41.136 58.8383 42C58.1983 42.864 57.3343 43.776 56.2463 44.736C55.8303 45.248 55.3983 45.712 54.9503 46.128C54.5343 46.512 54.3263 46.704 54.3263 46.704C54.3263 46.832 54.2463 47.008 54.0863 47.232C53.9263 47.456 53.7183 47.616 53.4623 47.712C53.1103 48.032 52.6143 48.48 51.9743 49.056C51.3343 49.632 50.7583 50.16 50.2463 50.64C49.7343 51.12 49.4623 51.408 49.4303 51.504C49.3983 51.568 49.5423 51.856 49.8623 52.368C50.1823 52.848 50.5983 53.424 51.1103 54.096C51.6223 54.768 52.1343 55.44 52.6463 56.112C53.1903 56.752 53.6703 57.296 54.0863 57.744C54.5023 58.16 54.7743 58.368 54.9023 58.368C55.9583 57.344 57.0463 56.352 58.1663 55.392C59.3183 54.4 60.4863 53.36 61.6703 52.272C62.4703 51.44 63.0303 50.864 63.3503 50.544C63.7023 50.192 63.9583 50.032 64.1183 50.064C64.3103 50.096 64.5183 50.224 64.7423 50.448C65.1583 50.512 65.3823 50.72 65.4143 51.072C65.4463 51.392 65.3983 51.712 65.2703 52.032C65.1423 52.32 65.0623 52.48 65.0303 52.512C64.6143 53.056 64.0383 53.68 63.3023 54.384C62.5663 55.088 61.7823 55.824 60.9503 56.592C60.1183 57.328 59.3343 58.032 58.5983 58.704C57.8623 59.376 57.2543 59.952 56.7743 60.432C56.7743 60.432 56.9663 60.672 57.3503 61.152C57.7663 61.6 58.1663 62 58.5503 62.352C59.6063 63.44 60.4223 64.208 60.9983 64.656C61.5743 65.072 62.2303 65.408 62.9663 65.664C63.9583 65.984 64.6943 66.368 65.1743 66.816C65.6543 67.296 65.9103 67.888 65.9423 68.592ZM42.3743 62.784C43.3343 63.072 44.2783 63.184 45.2063 63.12C46.1343 63.024 47.1103 62.752 48.1343 62.304C49.1903 61.856 50.3263 61.216 51.5423 60.384L52.4543 59.712L51.2543 58.32C51.0303 58.064 50.6943 57.632 50.2463 57.024C49.7983 56.416 49.3503 55.84 48.9023 55.296C48.4223 54.848 48.0543 54.416 47.7983 54C47.5423 53.584 47.4143 53.376 47.4143 53.376C47.3183 53.376 47.0943 53.536 46.7422 53.856C46.4223 54.176 46.0703 54.56 45.6863 55.008C45.3343 55.424 45.0623 55.792 44.8703 56.112C44.1343 56.688 43.5743 57.264 43.1903 57.84C42.8063 58.384 42.3743 59.024 41.8943 59.76C41.6703 60.272 41.5423 60.72 41.5103 61.104C41.4783 61.488 41.5263 61.808 41.6543 62.064C41.8143 62.32 42.0543 62.56 42.3743 62.784ZM47.8463 48.864C48.1983 48.48 48.7263 48 49.4303 47.424C50.1663 46.816 50.9503 46.16 51.7823 45.456C52.6463 44.72 53.4463 43.984 54.1823 43.248C54.9183 42.48 55.4943 41.76 55.9103 41.088C56.3583 40.384 56.5023 39.76 56.3423 39.216C56.2783 39.088 56.0063 38.912 55.5263 38.688C55.0783 38.464 54.5663 38.256 53.9903 38.064C53.4463 37.872 52.9823 37.792 52.5983 37.824C51.9583 37.76 51.2223 38.096 50.3903 38.832C49.5903 39.568 48.8223 40.464 48.0863 41.52C47.2863 42.704 46.8063 43.952 46.6463 45.264C46.4863 46.544 46.8863 47.744 47.8463 48.864ZM72.3 70.56C71.692 70.656 71.132 70.704 70.62 70.704C70.108 70.736 69.356 70.624 68.364 70.368C67.852 70.208 67.484 70.016 67.26 69.792C67.068 69.568 66.732 69.152 66.252 68.544C65.9 68.032 65.644 67.552 65.484 67.104C65.356 66.688 65.34 66.352 65.436 66.096C65.532 65.872 65.74 65.808 66.06 65.904C66.156 65.936 66.3 66.032 66.492 66.192C66.716 66.384 66.924 66.608 67.116 66.864C67.564 67.344 68.108 67.664 68.748 67.824C69.388 67.984 70.236 68 71.292 67.872C71.74 67.776 72.284 67.632 72.924 67.44C73.564 67.28 74.188 67.072 74.796 66.816C75.404 66.56 75.884 66.304 76.236 66.048C77.932 64.896 79.292 63.984 80.316 63.312C81.34 62.64 81.852 62.304 81.852 62.304C81.916 62.176 82.028 62.08 82.188 62.016C82.38 61.92 82.604 61.824 82.86 61.728C83.052 61.536 83.356 61.232 83.772 60.816C84.22 60.4 84.636 59.984 85.02 59.568C85.436 59.152 85.692 58.912 85.788 58.848C85.852 58.56 85.916 58.336 85.98 58.176C86.044 57.984 86.076 57.792 86.076 57.6C86.332 57.344 86.668 56.816 87.084 56.016C87.532 55.184 87.98 54.272 88.428 53.28C88.876 52.256 89.196 51.328 89.388 50.496C89.836 48.256 89.948 46.368 89.724 44.832C89.5 43.296 89.036 41.984 88.332 40.896C87.66 39.776 86.812 38.784 85.788 37.92C85.436 37.632 84.94 37.328 84.3 37.008C83.692 36.656 83.052 36.352 82.38 36.096C81.708 35.84 81.116 35.632 80.604 35.472C80.124 35.312 79.836 35.248 79.74 35.28C79.612 35.312 79.34 35.824 78.924 36.816C78.54 37.776 78.076 39.008 77.532 40.512C76.988 42.016 76.396 43.616 75.756 45.312C75.148 47.008 74.572 48.608 74.028 50.112C73.836 50.72 73.628 51.36 73.404 52.032C73.18 52.704 72.988 53.296 72.828 53.808C72.668 54.288 72.588 54.608 72.588 54.768C72.236 55.312 71.948 56.032 71.724 56.928C71.532 57.824 71.308 59.312 71.052 61.392C70.764 62.48 70.556 63.312 70.428 63.888C70.3 64.432 70.172 64.688 70.044 64.656C70.044 64.656 70.028 64.672 69.996 64.704C69.996 64.704 69.948 64.752 69.852 64.848C69.852 65.04 69.724 65.136 69.468 65.136C69.212 65.136 68.908 65.072 68.556 64.944C68.236 64.784 67.98 64.608 67.788 64.416C67.692 64.064 67.628 63.728 67.596 63.408C67.596 63.088 67.724 62.464 67.98 61.536C68.14 60.928 68.332 60.192 68.556 59.328C68.812 58.432 69.084 57.52 69.372 56.592C69.66 55.632 69.932 54.752 70.188 53.952C70.444 53.152 70.636 52.544 70.764 52.128C70.988 51.584 71.308 50.56 71.724 49.056C71.98 48.224 72.236 47.392 72.492 46.56C72.78 45.728 73.052 44.992 73.308 44.352C73.564 43.68 73.74 43.248 73.836 43.056C73.996 42.64 74.236 41.936 74.556 40.944C74.876 39.952 75.292 38.848 75.804 37.632L76.14 36.048L75.612 35.808C75.228 35.936 74.924 35.984 74.7 35.952C74.508 35.888 74.38 35.84 74.316 35.808C74.124 35.872 73.852 35.824 73.5 35.664C73.148 35.504 72.828 35.296 72.54 35.04C72.284 34.784 72.124 34.56 72.06 34.368C71.996 34.24 71.948 34.08 71.916 33.888C71.916 33.664 71.916 33.552 71.916 33.552C71.948 33.36 72.188 33.184 72.636 33.024C73.084 32.832 73.66 32.672 74.364 32.544C75.1 32.416 75.884 32.336 76.716 32.304C77.58 32.24 78.412 32.24 79.212 32.304C80.044 32.368 80.828 32.544 81.564 32.832C82.3 33.12 83.1 33.424 83.964 33.744C84.988 34.128 86.06 34.8 87.18 35.76C88.332 36.688 89.372 37.792 90.3 39.072C91.26 40.352 91.9 41.696 92.22 43.104C92.316 43.488 92.412 44.032 92.508 44.736C92.604 45.44 92.652 46.128 92.652 46.8C92.684 47.44 92.62 47.856 92.46 48.048C92.396 48.176 92.348 48.336 92.316 48.528C92.316 48.688 92.38 48.8 92.508 48.864C92.476 48.96 92.364 49.328 92.172 49.968C91.98 50.576 91.804 51.104 91.644 51.552C91.58 52.384 91.388 53.248 91.068 54.144C90.748 55.04 90.396 55.888 90.012 56.688C89.628 57.456 89.276 58.112 88.956 58.656C88.828 58.656 88.7 58.688 88.572 58.752C88.476 58.784 88.492 58.816 88.62 58.848C88.62 59.008 88.444 59.312 88.092 59.76C87.964 59.856 87.756 60.096 87.468 60.48C87.212 60.832 87.004 61.072 86.844 61.2C86.812 61.424 86.716 61.616 86.556 61.776C86.396 61.904 86.252 61.968 86.124 61.968C86.124 61.968 86.092 61.968 86.028 61.968C85.996 61.968 85.98 62.032 85.98 62.16C85.724 62.544 85.324 63.008 84.78 63.552C84.236 64.064 83.612 64.608 82.908 65.184C82.236 65.728 81.532 66.24 80.796 66.72C80.092 67.2 79.42 67.568 78.78 67.824C78.46 68.048 78.124 68.224 77.772 68.352C77.42 68.512 77.084 68.672 76.764 68.832C76.604 68.96 76.252 69.136 75.708 69.36C75.164 69.616 74.572 69.856 73.932 70.08C73.324 70.304 72.78 70.464 72.3 70.56Z" fill="#4B2E20"/>
</svg>
